<mxfile modified="2020-05-14T11:23:05.221Z" host="app.diagrams.net" agent="5.0 (Macintosh; Intel Mac OS X 10_15_4) AppleWebKit/537.36 (KHTML, like Gecko) Chrome/81.0.4044.138 Safari/537.36" etag="HFE7RDe9IEiRyvWPCA1S" version="13.1.1" type="github" pages="4">
  <diagram name="HDFS输出高可用机制" id="QLA6c8afZ9ptkQlskvu9">
    <mxGraphModel dx="1298" dy="762" grid="1" gridSize="10" guides="1" tooltips="1" connect="1" arrows="1" fold="1" page="1" pageScale="1" pageWidth="3300" pageHeight="4681" math="0" shadow="0">
      <root>
        <mxCell id="_19f8AWKwFTEjqmsnG6Q-0" />
        <mxCell id="_19f8AWKwFTEjqmsnG6Q-1" parent="_19f8AWKwFTEjqmsnG6Q-0" />
        <mxCell id="5JSRhHSlmXWrOIIpgonB-0" value="ETL输出消息队列" style="swimlane;fillColor=#b1ddf0;strokeColor=#10739e;fontColor=#000000;" parent="_19f8AWKwFTEjqmsnG6Q-1" vertex="1">
          <mxGeometry x="190" y="110" width="190" height="670" as="geometry">
            <mxRectangle x="410" y="230" width="130" height="23" as="alternateBounds" />
          </mxGeometry>
        </mxCell>
        <mxCell id="5JSRhHSlmXWrOIIpgonB-1" value="Map&amp;lt;String,Object&amp;gt;" style="strokeWidth=2;html=1;shape=mxgraph.flowchart.sequential_data;whiteSpace=wrap;fillColor=#cce5ff;strokeColor=#36393d;" parent="5JSRhHSlmXWrOIIpgonB-0" vertex="1">
          <mxGeometry x="30" y="130" width="125" height="100" as="geometry" />
        </mxCell>
        <mxCell id="5JSRhHSlmXWrOIIpgonB-2" value="ETL输出模块" style="swimlane;fillColor=#b1ddf0;strokeColor=#10739e;startSize=23;" parent="_19f8AWKwFTEjqmsnG6Q-1" vertex="1">
          <mxGeometry x="380" y="110" width="190" height="670" as="geometry" />
        </mxCell>
        <mxCell id="5JSRhHSlmXWrOIIpgonB-3" style="edgeStyle=orthogonalEdgeStyle;rounded=0;orthogonalLoop=1;jettySize=auto;html=1;entryX=0.5;entryY=0;entryDx=0;entryDy=0;fontColor=#000000;" parent="5JSRhHSlmXWrOIIpgonB-2" source="5JSRhHSlmXWrOIIpgonB-4" target="5JSRhHSlmXWrOIIpgonB-6" edge="1">
          <mxGeometry relative="1" as="geometry" />
        </mxCell>
        <mxCell id="5JSRhHSlmXWrOIIpgonB-4" value="初始化HDFS输出插件" style="ellipse;whiteSpace=wrap;html=1;fillColor=#cce5ff;strokeColor=#36393d;" parent="5JSRhHSlmXWrOIIpgonB-2" vertex="1">
          <mxGeometry x="30" y="40" width="130" height="70" as="geometry" />
        </mxCell>
        <mxCell id="5JSRhHSlmXWrOIIpgonB-5" value="" style="edgeStyle=orthogonalEdgeStyle;rounded=0;orthogonalLoop=1;jettySize=auto;html=1;fontColor=#000000;entryX=0.5;entryY=0;entryDx=0;entryDy=0;" parent="5JSRhHSlmXWrOIIpgonB-2" source="5JSRhHSlmXWrOIIpgonB-6" target="5JSRhHSlmXWrOIIpgonB-8" edge="1">
          <mxGeometry relative="1" as="geometry">
            <mxPoint x="95" y="260" as="targetPoint" />
          </mxGeometry>
        </mxCell>
        <mxCell id="5JSRhHSlmXWrOIIpgonB-6" value="获取消息" style="whiteSpace=wrap;html=1;fillColor=#cce5ff;strokeColor=#36393d;" parent="5JSRhHSlmXWrOIIpgonB-2" vertex="1">
          <mxGeometry x="35" y="150" width="120" height="60" as="geometry" />
        </mxCell>
        <mxCell id="5JSRhHSlmXWrOIIpgonB-7" value="" style="edgeStyle=orthogonalEdgeStyle;rounded=0;orthogonalLoop=1;jettySize=auto;html=1;fontSize=16;entryX=0.5;entryY=0;entryDx=0;entryDy=0;" parent="5JSRhHSlmXWrOIIpgonB-2" source="5JSRhHSlmXWrOIIpgonB-8" target="5JSRhHSlmXWrOIIpgonB-12" edge="1">
          <mxGeometry relative="1" as="geometry">
            <mxPoint x="95" y="420" as="targetPoint" />
          </mxGeometry>
        </mxCell>
        <mxCell id="5JSRhHSlmXWrOIIpgonB-8" value="&lt;span style=&quot;white-space: normal&quot;&gt;数据输出&lt;/span&gt;" style="whiteSpace=wrap;html=1;fillColor=#cce5ff;strokeColor=#36393d;" parent="5JSRhHSlmXWrOIIpgonB-2" vertex="1">
          <mxGeometry x="35" y="280" width="120" height="60" as="geometry" />
        </mxCell>
        <mxCell id="5JSRhHSlmXWrOIIpgonB-9" value="输出结束" style="ellipse;whiteSpace=wrap;html=1;fillColor=#cce5ff;strokeColor=#36393d;" parent="5JSRhHSlmXWrOIIpgonB-2" vertex="1">
          <mxGeometry x="40" y="580" width="110" height="70" as="geometry" />
        </mxCell>
        <mxCell id="5JSRhHSlmXWrOIIpgonB-10" value="是" style="edgeStyle=orthogonalEdgeStyle;rounded=0;orthogonalLoop=1;jettySize=auto;html=1;entryX=0.5;entryY=0;entryDx=0;entryDy=0;fontSize=16;" parent="5JSRhHSlmXWrOIIpgonB-2" source="5JSRhHSlmXWrOIIpgonB-12" target="5JSRhHSlmXWrOIIpgonB-9" edge="1">
          <mxGeometry relative="1" as="geometry" />
        </mxCell>
        <mxCell id="5JSRhHSlmXWrOIIpgonB-11" value="否" style="edgeStyle=orthogonalEdgeStyle;rounded=0;orthogonalLoop=1;jettySize=auto;html=1;entryX=0;entryY=0.5;entryDx=0;entryDy=0;fontSize=16;exitX=0;exitY=0.5;exitDx=0;exitDy=0;" parent="5JSRhHSlmXWrOIIpgonB-2" source="5JSRhHSlmXWrOIIpgonB-12" target="5JSRhHSlmXWrOIIpgonB-8" edge="1">
          <mxGeometry relative="1" as="geometry">
            <Array as="points">
              <mxPoint x="15" y="460" />
              <mxPoint x="15" y="310" />
            </Array>
          </mxGeometry>
        </mxCell>
        <mxCell id="5JSRhHSlmXWrOIIpgonB-12" value="输出完成" style="rhombus;whiteSpace=wrap;html=1;fontSize=12;fillColor=#cce5ff;strokeColor=#36393d;" parent="5JSRhHSlmXWrOIIpgonB-2" vertex="1">
          <mxGeometry x="55" y="420" width="80" height="80" as="geometry" />
        </mxCell>
        <mxCell id="5JSRhHSlmXWrOIIpgonB-13" style="edgeStyle=orthogonalEdgeStyle;rounded=0;orthogonalLoop=1;jettySize=auto;html=1;entryX=0;entryY=0.5;entryDx=0;entryDy=0;fontColor=#000000;" parent="_19f8AWKwFTEjqmsnG6Q-1" source="5JSRhHSlmXWrOIIpgonB-1" target="5JSRhHSlmXWrOIIpgonB-6" edge="1">
          <mxGeometry relative="1" as="geometry" />
        </mxCell>
        <mxCell id="5JSRhHSlmXWrOIIpgonB-14" value="HDFS" style="swimlane;fillColor=#b1ddf0;strokeColor=#10739e;startSize=23;" parent="_19f8AWKwFTEjqmsnG6Q-1" vertex="1">
          <mxGeometry x="570" y="110" width="190" height="670" as="geometry" />
        </mxCell>
        <mxCell id="5JSRhHSlmXWrOIIpgonB-15" value="数据文件" style="strokeWidth=2;html=1;shape=mxgraph.flowchart.multi-document;whiteSpace=wrap;fontColor=#000000;fillColor=#CCE5FF;" parent="5JSRhHSlmXWrOIIpgonB-14" vertex="1">
          <mxGeometry x="51" y="280" width="88" height="60" as="geometry" />
        </mxCell>
        <mxCell id="5JSRhHSlmXWrOIIpgonB-16" style="edgeStyle=orthogonalEdgeStyle;rounded=0;orthogonalLoop=1;jettySize=auto;html=1;entryX=0;entryY=0.5;entryDx=0;entryDy=0;entryPerimeter=0;fontColor=#000000;" parent="_19f8AWKwFTEjqmsnG6Q-1" source="5JSRhHSlmXWrOIIpgonB-8" target="5JSRhHSlmXWrOIIpgonB-15" edge="1">
          <mxGeometry relative="1" as="geometry" />
        </mxCell>
        <mxCell id="5JSRhHSlmXWrOIIpgonB-17" value="HDFS输出高可用机制数据流程图" style="rounded=0;whiteSpace=wrap;html=1;fillColor=#0050ef;strokeColor=#001DBC;fontColor=#ffffff;fontSize=16;" parent="_19f8AWKwFTEjqmsnG6Q-1" vertex="1">
          <mxGeometry x="190" y="70" width="570" height="40" as="geometry" />
        </mxCell>
      </root>
    </mxGraphModel>
  </diagram>
  <diagram name="RedisMatcher缓存匹配解析器" id="6tJeXMhGGitV_Z6dKe4h">
    <mxGraphModel dx="1298" dy="762" grid="1" gridSize="10" guides="1" tooltips="1" connect="1" arrows="1" fold="1" page="1" pageScale="1" pageWidth="3300" pageHeight="4681" math="0" shadow="0">
      <root>
        <mxCell id="0AodWVna2HB9icSDbrAr-0" />
        <mxCell id="0AodWVna2HB9icSDbrAr-1" parent="0AodWVna2HB9icSDbrAr-0" />
        <mxCell id="0AodWVna2HB9icSDbrAr-2" value="数据源" style="swimlane;fillColor=#b1ddf0;strokeColor=#10739e;" parent="0AodWVna2HB9icSDbrAr-1" vertex="1">
          <mxGeometry x="260" y="220" width="220" height="590" as="geometry" />
        </mxCell>
        <mxCell id="0AodWVna2HB9icSDbrAr-3" value="源数据文件" style="strokeWidth=2;html=1;shape=mxgraph.flowchart.multi-document;whiteSpace=wrap;fillColor=#cce5ff;strokeColor=#36393d;" parent="0AodWVna2HB9icSDbrAr-2" vertex="1">
          <mxGeometry x="40" y="135" width="124" height="90" as="geometry" />
        </mxCell>
        <mxCell id="0AodWVna2HB9icSDbrAr-4" value="ETL输入模块" style="swimlane;fillColor=#b1ddf0;strokeColor=#10739e;" parent="0AodWVna2HB9icSDbrAr-1" vertex="1">
          <mxGeometry x="480" y="220" width="250" height="590" as="geometry" />
        </mxCell>
        <mxCell id="0AodWVna2HB9icSDbrAr-5" style="edgeStyle=orthogonalEdgeStyle;rounded=0;orthogonalLoop=1;jettySize=auto;html=1;entryX=0.5;entryY=0;entryDx=0;entryDy=0;" parent="0AodWVna2HB9icSDbrAr-4" source="0AodWVna2HB9icSDbrAr-6" target="0AodWVna2HB9icSDbrAr-8" edge="1">
          <mxGeometry relative="1" as="geometry" />
        </mxCell>
        <mxCell id="0AodWVna2HB9icSDbrAr-6" value="初始化输入模块" style="ellipse;whiteSpace=wrap;html=1;fillColor=#cce5ff;strokeColor=#36393d;" parent="0AodWVna2HB9icSDbrAr-4" vertex="1">
          <mxGeometry x="70" y="35" width="110" height="70" as="geometry" />
        </mxCell>
        <mxCell id="0AodWVna2HB9icSDbrAr-7" style="edgeStyle=orthogonalEdgeStyle;rounded=0;orthogonalLoop=1;jettySize=auto;html=1;entryX=0.5;entryY=0;entryDx=0;entryDy=0;" parent="0AodWVna2HB9icSDbrAr-4" source="0AodWVna2HB9icSDbrAr-8" target="0AodWVna2HB9icSDbrAr-10" edge="1">
          <mxGeometry relative="1" as="geometry" />
        </mxCell>
        <mxCell id="0AodWVna2HB9icSDbrAr-8" value="读取源数据" style="whiteSpace=wrap;html=1;fillColor=#cce5ff;strokeColor=#36393d;" parent="0AodWVna2HB9icSDbrAr-4" vertex="1">
          <mxGeometry x="65" y="150" width="120" height="60" as="geometry" />
        </mxCell>
        <mxCell id="0AodWVna2HB9icSDbrAr-9" style="edgeStyle=orthogonalEdgeStyle;rounded=0;orthogonalLoop=1;jettySize=auto;html=1;entryX=0.5;entryY=0;entryDx=0;entryDy=0;" parent="0AodWVna2HB9icSDbrAr-4" source="0AodWVna2HB9icSDbrAr-10" target="0AodWVna2HB9icSDbrAr-12" edge="1">
          <mxGeometry relative="1" as="geometry" />
        </mxCell>
        <mxCell id="0AodWVna2HB9icSDbrAr-10" value="处理源数据" style="whiteSpace=wrap;html=1;fillColor=#cce5ff;strokeColor=#36393d;" parent="0AodWVna2HB9icSDbrAr-4" vertex="1">
          <mxGeometry x="52.5" y="270" width="145" height="70" as="geometry" />
        </mxCell>
        <mxCell id="0AodWVna2HB9icSDbrAr-11" style="edgeStyle=orthogonalEdgeStyle;rounded=0;orthogonalLoop=1;jettySize=auto;html=1;entryX=0.5;entryY=0;entryDx=0;entryDy=0;" parent="0AodWVna2HB9icSDbrAr-4" source="0AodWVna2HB9icSDbrAr-12" target="0AodWVna2HB9icSDbrAr-13" edge="1">
          <mxGeometry relative="1" as="geometry">
            <mxPoint x="125" y="480" as="targetPoint" />
          </mxGeometry>
        </mxCell>
        <mxCell id="0AodWVna2HB9icSDbrAr-12" value="提取需要的数据输出" style="whiteSpace=wrap;html=1;fillColor=#cce5ff;strokeColor=#36393d;" parent="0AodWVna2HB9icSDbrAr-4" vertex="1">
          <mxGeometry x="65" y="380" width="120" height="60" as="geometry" />
        </mxCell>
        <mxCell id="0AodWVna2HB9icSDbrAr-13" value="输入模块完毕" style="ellipse;whiteSpace=wrap;html=1;fillColor=#cce5ff;strokeColor=#36393d;" parent="0AodWVna2HB9icSDbrAr-4" vertex="1">
          <mxGeometry x="70" y="500" width="110" height="70" as="geometry" />
        </mxCell>
        <mxCell id="0AodWVna2HB9icSDbrAr-14" value="ETL输入消息队列" style="swimlane;fillColor=#b1ddf0;strokeColor=#10739e;" parent="0AodWVna2HB9icSDbrAr-1" vertex="1">
          <mxGeometry x="730" y="220" width="190" height="590" as="geometry" />
        </mxCell>
        <mxCell id="0AodWVna2HB9icSDbrAr-15" value="Map&amp;lt;String,Object&amp;gt;" style="strokeWidth=2;html=1;shape=mxgraph.flowchart.sequential_data;whiteSpace=wrap;fillColor=#cce5ff;strokeColor=#36393d;" parent="0AodWVna2HB9icSDbrAr-14" vertex="1">
          <mxGeometry x="30" y="130" width="125" height="100" as="geometry" />
        </mxCell>
        <mxCell id="0AodWVna2HB9icSDbrAr-16" style="edgeStyle=orthogonalEdgeStyle;rounded=0;orthogonalLoop=1;jettySize=auto;html=1;entryX=0.5;entryY=1;entryDx=0;entryDy=0;entryPerimeter=0;" parent="0AodWVna2HB9icSDbrAr-1" source="0AodWVna2HB9icSDbrAr-12" target="0AodWVna2HB9icSDbrAr-15" edge="1">
          <mxGeometry relative="1" as="geometry" />
        </mxCell>
        <mxCell id="0AodWVna2HB9icSDbrAr-17" style="edgeStyle=orthogonalEdgeStyle;rounded=0;orthogonalLoop=1;jettySize=auto;html=1;entryX=0;entryY=0.5;entryDx=0;entryDy=0;fontColor=#FFFFFF;" parent="0AodWVna2HB9icSDbrAr-1" source="0AodWVna2HB9icSDbrAr-3" target="0AodWVna2HB9icSDbrAr-8" edge="1">
          <mxGeometry relative="1" as="geometry" />
        </mxCell>
        <mxCell id="0AodWVna2HB9icSDbrAr-18" value="ETL解析模块" style="swimlane;fillColor=#b1ddf0;strokeColor=#10739e;startSize=23;" parent="0AodWVna2HB9icSDbrAr-1" vertex="1">
          <mxGeometry x="920" y="220" width="190" height="590" as="geometry" />
        </mxCell>
        <mxCell id="0AodWVna2HB9icSDbrAr-19" style="edgeStyle=orthogonalEdgeStyle;rounded=0;orthogonalLoop=1;jettySize=auto;html=1;entryX=0.5;entryY=0;entryDx=0;entryDy=0;fontColor=#FFFFFF;" parent="0AodWVna2HB9icSDbrAr-18" source="0AodWVna2HB9icSDbrAr-20" target="0AodWVna2HB9icSDbrAr-22" edge="1">
          <mxGeometry relative="1" as="geometry" />
        </mxCell>
        <mxCell id="0AodWVna2HB9icSDbrAr-20" value="初始化解析模块" style="ellipse;whiteSpace=wrap;html=1;fillColor=#cce5ff;strokeColor=#36393d;" parent="0AodWVna2HB9icSDbrAr-18" vertex="1">
          <mxGeometry x="40" y="35" width="110" height="70" as="geometry" />
        </mxCell>
        <mxCell id="0AodWVna2HB9icSDbrAr-21" value="" style="edgeStyle=orthogonalEdgeStyle;rounded=0;orthogonalLoop=1;jettySize=auto;html=1;fontColor=#FFFFFF;" parent="0AodWVna2HB9icSDbrAr-18" source="0AodWVna2HB9icSDbrAr-22" target="0AodWVna2HB9icSDbrAr-24" edge="1">
          <mxGeometry relative="1" as="geometry" />
        </mxCell>
        <mxCell id="0AodWVna2HB9icSDbrAr-22" value="获取消息" style="whiteSpace=wrap;html=1;fillColor=#cce5ff;strokeColor=#36393d;" parent="0AodWVna2HB9icSDbrAr-18" vertex="1">
          <mxGeometry x="35" y="150" width="120" height="60" as="geometry" />
        </mxCell>
        <mxCell id="0AodWVna2HB9icSDbrAr-23" value="" style="edgeStyle=orthogonalEdgeStyle;rounded=0;orthogonalLoop=1;jettySize=auto;html=1;fontColor=#FFFFFF;" parent="0AodWVna2HB9icSDbrAr-18" source="0AodWVna2HB9icSDbrAr-24" target="0AodWVna2HB9icSDbrAr-26" edge="1">
          <mxGeometry relative="1" as="geometry" />
        </mxCell>
        <mxCell id="0AodWVna2HB9icSDbrAr-24" value="RedisMatcher匹配key与field" style="whiteSpace=wrap;html=1;fillColor=#cce5ff;strokeColor=#36393d;" parent="0AodWVna2HB9icSDbrAr-18" vertex="1">
          <mxGeometry x="35" y="265" width="120" height="60" as="geometry" />
        </mxCell>
        <mxCell id="0AodWVna2HB9icSDbrAr-25" value="" style="edgeStyle=orthogonalEdgeStyle;rounded=0;orthogonalLoop=1;jettySize=auto;html=1;fontColor=#FFFFFF;entryX=0.5;entryY=0;entryDx=0;entryDy=0;" parent="0AodWVna2HB9icSDbrAr-18" source="0AodWVna2HB9icSDbrAr-26" target="0AodWVna2HB9icSDbrAr-27" edge="1">
          <mxGeometry relative="1" as="geometry">
            <mxPoint x="95" y="500" as="targetPoint" />
          </mxGeometry>
        </mxCell>
        <mxCell id="0AodWVna2HB9icSDbrAr-26" value="输出消息" style="whiteSpace=wrap;html=1;fillColor=#cce5ff;strokeColor=#36393d;" parent="0AodWVna2HB9icSDbrAr-18" vertex="1">
          <mxGeometry x="35" y="380" width="120" height="60" as="geometry" />
        </mxCell>
        <mxCell id="0AodWVna2HB9icSDbrAr-27" value="解析模块完毕" style="ellipse;whiteSpace=wrap;html=1;fillColor=#cce5ff;strokeColor=#36393d;" parent="0AodWVna2HB9icSDbrAr-18" vertex="1">
          <mxGeometry x="40" y="500" width="110" height="70" as="geometry" />
        </mxCell>
        <mxCell id="0AodWVna2HB9icSDbrAr-28" style="edgeStyle=orthogonalEdgeStyle;rounded=0;orthogonalLoop=1;jettySize=auto;html=1;entryX=0;entryY=0.5;entryDx=0;entryDy=0;fontColor=#FFFFFF;" parent="0AodWVna2HB9icSDbrAr-1" source="0AodWVna2HB9icSDbrAr-15" target="0AodWVna2HB9icSDbrAr-22" edge="1">
          <mxGeometry relative="1" as="geometry" />
        </mxCell>
        <mxCell id="0AodWVna2HB9icSDbrAr-29" value="ETL输出消息队列" style="swimlane;fillColor=#b1ddf0;strokeColor=#10739e;" parent="0AodWVna2HB9icSDbrAr-1" vertex="1">
          <mxGeometry x="1110" y="220" width="190" height="590" as="geometry" />
        </mxCell>
        <mxCell id="0AodWVna2HB9icSDbrAr-30" value="Map&amp;lt;String,Object&amp;gt;" style="strokeWidth=2;html=1;shape=mxgraph.flowchart.sequential_data;whiteSpace=wrap;fillColor=#cce5ff;strokeColor=#36393d;" parent="0AodWVna2HB9icSDbrAr-29" vertex="1">
          <mxGeometry x="30" y="130" width="125" height="100" as="geometry" />
        </mxCell>
        <mxCell id="0AodWVna2HB9icSDbrAr-31" style="edgeStyle=orthogonalEdgeStyle;rounded=0;orthogonalLoop=1;jettySize=auto;html=1;entryX=0.5;entryY=1;entryDx=0;entryDy=0;entryPerimeter=0;fontColor=#FFFFFF;" parent="0AodWVna2HB9icSDbrAr-1" source="0AodWVna2HB9icSDbrAr-26" target="0AodWVna2HB9icSDbrAr-30" edge="1">
          <mxGeometry relative="1" as="geometry" />
        </mxCell>
        <mxCell id="L3FBEPCJGVgEJKZWhFNF-0" value="RedisMatcher缓存匹配解析器" style="rounded=0;whiteSpace=wrap;html=1;fillColor=#0050ef;strokeColor=#001DBC;fontColor=#ffffff;fontSize=16;" parent="0AodWVna2HB9icSDbrAr-1" vertex="1">
          <mxGeometry x="260" y="180" width="1040" height="40" as="geometry" />
        </mxCell>
      </root>
    </mxGraphModel>
  </diagram>
  <diagram name="字符串精准匹配优化（hash1对N模式、内存优化）" id="JFFQAuG_wPv6WIEdarv0">
    <mxGraphModel dx="1298" dy="762" grid="1" gridSize="10" guides="1" tooltips="1" connect="1" arrows="1" fold="1" page="1" pageScale="1" pageWidth="3300" pageHeight="4681" math="0" shadow="0">
      <root>
        <mxCell id="qLnb4DoY_4VkfMyuGr5S-0" />
        <mxCell id="qLnb4DoY_4VkfMyuGr5S-1" parent="qLnb4DoY_4VkfMyuGr5S-0" />
        <mxCell id="qLnb4DoY_4VkfMyuGr5S-2" value="数据源" style="swimlane;fillColor=#b1ddf0;strokeColor=#10739e;" parent="qLnb4DoY_4VkfMyuGr5S-1" vertex="1">
          <mxGeometry x="240" y="220" width="240" height="700" as="geometry" />
        </mxCell>
        <mxCell id="qLnb4DoY_4VkfMyuGr5S-34" value="MySQL数据库" style="html=1;shape=mxgraph.flowchart.database;whiteSpace=wrap;fontColor=#000000;strokeColor=#36393d;fillColor=#cce5ff;" parent="qLnb4DoY_4VkfMyuGr5S-2" vertex="1">
          <mxGeometry x="65" y="125" width="90" height="110" as="geometry" />
        </mxCell>
        <mxCell id="qLnb4DoY_4VkfMyuGr5S-18" value="ETL解析模块" style="swimlane;fillColor=#b1ddf0;strokeColor=#10739e;startSize=23;" parent="qLnb4DoY_4VkfMyuGr5S-1" vertex="1">
          <mxGeometry x="480" y="220" width="250" height="700" as="geometry" />
        </mxCell>
        <mxCell id="V2bdReU_o3_CmRVQtRbT-26" style="edgeStyle=orthogonalEdgeStyle;rounded=0;orthogonalLoop=1;jettySize=auto;html=1;entryX=0.5;entryY=0;entryDx=0;entryDy=0;fontSize=12;" parent="qLnb4DoY_4VkfMyuGr5S-18" source="qLnb4DoY_4VkfMyuGr5S-20" target="V2bdReU_o3_CmRVQtRbT-16" edge="1">
          <mxGeometry relative="1" as="geometry" />
        </mxCell>
        <mxCell id="qLnb4DoY_4VkfMyuGr5S-20" value="初始化HashMapping解析器" style="ellipse;whiteSpace=wrap;html=1;fillColor=#cce5ff;strokeColor=#36393d;" parent="qLnb4DoY_4VkfMyuGr5S-18" vertex="1">
          <mxGeometry x="60" y="30" width="120" height="70" as="geometry" />
        </mxCell>
        <mxCell id="V2bdReU_o3_CmRVQtRbT-23" value="" style="edgeStyle=orthogonalEdgeStyle;rounded=0;orthogonalLoop=1;jettySize=auto;html=1;fontSize=12;" parent="qLnb4DoY_4VkfMyuGr5S-18" source="qLnb4DoY_4VkfMyuGr5S-22" target="V2bdReU_o3_CmRVQtRbT-22" edge="1">
          <mxGeometry relative="1" as="geometry" />
        </mxCell>
        <mxCell id="qLnb4DoY_4VkfMyuGr5S-22" value="从MySQL中加载规则集" style="whiteSpace=wrap;html=1;fillColor=#cce5ff;strokeColor=#36393d;" parent="qLnb4DoY_4VkfMyuGr5S-18" vertex="1">
          <mxGeometry x="60" y="360" width="120" height="60" as="geometry" />
        </mxCell>
        <mxCell id="V2bdReU_o3_CmRVQtRbT-25" style="edgeStyle=orthogonalEdgeStyle;rounded=0;orthogonalLoop=1;jettySize=auto;html=1;fontSize=12;" parent="qLnb4DoY_4VkfMyuGr5S-18" source="V2bdReU_o3_CmRVQtRbT-22" target="qLnb4DoY_4VkfMyuGr5S-27" edge="1">
          <mxGeometry relative="1" as="geometry" />
        </mxCell>
        <mxCell id="V2bdReU_o3_CmRVQtRbT-22" value="以SQL为key缓存规则集" style="whiteSpace=wrap;html=1;fillColor=#cce5ff;strokeColor=#36393d;" parent="qLnb4DoY_4VkfMyuGr5S-18" vertex="1">
          <mxGeometry x="60" y="500" width="120" height="60" as="geometry" />
        </mxCell>
        <mxCell id="qLnb4DoY_4VkfMyuGr5S-27" value="规则加载完毕" style="ellipse;whiteSpace=wrap;html=1;fillColor=#cce5ff;strokeColor=#36393d;" parent="qLnb4DoY_4VkfMyuGr5S-18" vertex="1">
          <mxGeometry x="65" y="620" width="110" height="70" as="geometry" />
        </mxCell>
        <mxCell id="V2bdReU_o3_CmRVQtRbT-18" value="" style="edgeStyle=orthogonalEdgeStyle;rounded=0;orthogonalLoop=1;jettySize=auto;html=1;fontSize=16;" parent="qLnb4DoY_4VkfMyuGr5S-18" source="V2bdReU_o3_CmRVQtRbT-16" target="V2bdReU_o3_CmRVQtRbT-12" edge="1">
          <mxGeometry relative="1" as="geometry" />
        </mxCell>
        <mxCell id="V2bdReU_o3_CmRVQtRbT-16" value="以SQL为key获取规则集" style="whiteSpace=wrap;html=1;fillColor=#cce5ff;strokeColor=#36393d;" parent="qLnb4DoY_4VkfMyuGr5S-18" vertex="1">
          <mxGeometry x="60" y="140" width="120" height="60" as="geometry" />
        </mxCell>
        <mxCell id="V2bdReU_o3_CmRVQtRbT-19" value="否" style="edgeStyle=orthogonalEdgeStyle;rounded=0;orthogonalLoop=1;jettySize=auto;html=1;entryX=0.5;entryY=0;entryDx=0;entryDy=0;fontSize=12;" parent="qLnb4DoY_4VkfMyuGr5S-18" source="V2bdReU_o3_CmRVQtRbT-12" target="qLnb4DoY_4VkfMyuGr5S-22" edge="1">
          <mxGeometry relative="1" as="geometry" />
        </mxCell>
        <mxCell id="V2bdReU_o3_CmRVQtRbT-12" value="存在" style="rhombus;whiteSpace=wrap;html=1;fontSize=12;strokeColor=#36393d;fillColor=#cce5ff;" parent="qLnb4DoY_4VkfMyuGr5S-18" vertex="1">
          <mxGeometry x="80" y="240" width="80" height="80" as="geometry" />
        </mxCell>
        <mxCell id="qLnb4DoY_4VkfMyuGr5S-35" style="edgeStyle=orthogonalEdgeStyle;rounded=0;orthogonalLoop=1;jettySize=auto;html=1;fontColor=#000000;" parent="qLnb4DoY_4VkfMyuGr5S-1" source="qLnb4DoY_4VkfMyuGr5S-22" target="qLnb4DoY_4VkfMyuGr5S-34" edge="1">
          <mxGeometry relative="1" as="geometry" />
        </mxCell>
        <mxCell id="V2bdReU_o3_CmRVQtRbT-0" value="字符串精准匹配优化（hash1对N模式、内存优化）" style="rounded=0;whiteSpace=wrap;html=1;fillColor=#0050ef;strokeColor=#001DBC;fontColor=#ffffff;fontSize=16;" parent="qLnb4DoY_4VkfMyuGr5S-1" vertex="1">
          <mxGeometry x="240" y="190" width="680" height="30" as="geometry" />
        </mxCell>
        <mxCell id="V2bdReU_o3_CmRVQtRbT-1" value="ETL内存" style="swimlane;fillColor=#b1ddf0;strokeColor=#10739e;startSize=23;" parent="qLnb4DoY_4VkfMyuGr5S-1" vertex="1">
          <mxGeometry x="730" y="220" width="190" height="700" as="geometry" />
        </mxCell>
        <mxCell id="V2bdReU_o3_CmRVQtRbT-11" value="以SQL语句为key缓存规则集" style="shape=cylinder;whiteSpace=wrap;html=1;boundedLbl=1;backgroundOutline=1;fontSize=12;strokeColor=#36393d;fillColor=#cce5ff;" parent="V2bdReU_o3_CmRVQtRbT-1" vertex="1">
          <mxGeometry x="50" y="290" width="75" height="110" as="geometry" />
        </mxCell>
        <mxCell id="V2bdReU_o3_CmRVQtRbT-24" style="edgeStyle=orthogonalEdgeStyle;rounded=0;orthogonalLoop=1;jettySize=auto;html=1;entryX=0.5;entryY=1;entryDx=0;entryDy=0;fontSize=12;" parent="qLnb4DoY_4VkfMyuGr5S-1" source="V2bdReU_o3_CmRVQtRbT-22" target="V2bdReU_o3_CmRVQtRbT-11" edge="1">
          <mxGeometry relative="1" as="geometry" />
        </mxCell>
        <mxCell id="V2bdReU_o3_CmRVQtRbT-27" style="edgeStyle=orthogonalEdgeStyle;rounded=0;orthogonalLoop=1;jettySize=auto;html=1;entryX=0.5;entryY=0;entryDx=0;entryDy=0;fontSize=12;" parent="qLnb4DoY_4VkfMyuGr5S-1" source="V2bdReU_o3_CmRVQtRbT-16" target="V2bdReU_o3_CmRVQtRbT-11" edge="1">
          <mxGeometry relative="1" as="geometry" />
        </mxCell>
      </root>
    </mxGraphModel>
  </diagram>
  <diagram id="uwxx-zVWT2aNcqOA1kUx" name="规则更新机制优化">
    <mxGraphModel dx="1298" dy="762" grid="1" gridSize="10" guides="1" tooltips="1" connect="1" arrows="1" fold="1" page="1" pageScale="1" pageWidth="827" pageHeight="1169" math="0" shadow="0">
      <root>
        <mxCell id="eJphlYySZREIFO1Mv2iO-0" />
        <mxCell id="eJphlYySZREIFO1Mv2iO-1" parent="eJphlYySZREIFO1Mv2iO-0" />
        <mxCell id="snnlCT7HqFTVK2Kif3Db-0" value="数据源" style="swimlane;fillColor=#b1ddf0;strokeColor=#10739e;" parent="eJphlYySZREIFO1Mv2iO-1" vertex="1">
          <mxGeometry x="60" y="100" width="240" height="740" as="geometry" />
        </mxCell>
        <mxCell id="snnlCT7HqFTVK2Kif3Db-1" value="MySQL数据库" style="html=1;shape=mxgraph.flowchart.database;whiteSpace=wrap;fontColor=#000000;strokeColor=#36393d;fillColor=#cce5ff;" parent="snnlCT7HqFTVK2Kif3Db-0" vertex="1">
          <mxGeometry x="60" y="115" width="90" height="110" as="geometry" />
        </mxCell>
        <mxCell id="snnlCT7HqFTVK2Kif3Db-2" value="ETL" style="swimlane;fillColor=#b1ddf0;strokeColor=#10739e;startSize=23;" parent="eJphlYySZREIFO1Mv2iO-1" vertex="1">
          <mxGeometry x="300" y="100" width="250" height="740" as="geometry" />
        </mxCell>
        <mxCell id="snnlCT7HqFTVK2Kif3Db-3" style="edgeStyle=orthogonalEdgeStyle;rounded=0;orthogonalLoop=1;jettySize=auto;html=1;entryX=0.5;entryY=0;entryDx=0;entryDy=0;fontSize=12;" parent="snnlCT7HqFTVK2Kif3Db-2" source="snnlCT7HqFTVK2Kif3Db-4" target="snnlCT7HqFTVK2Kif3Db-11" edge="1">
          <mxGeometry relative="1" as="geometry" />
        </mxCell>
        <mxCell id="snnlCT7HqFTVK2Kif3Db-4" value="初始化解析模块" style="ellipse;whiteSpace=wrap;html=1;fillColor=#cce5ff;strokeColor=#36393d;" parent="snnlCT7HqFTVK2Kif3Db-2" vertex="1">
          <mxGeometry x="60" y="30" width="120" height="70" as="geometry" />
        </mxCell>
        <mxCell id="snnlCT7HqFTVK2Kif3Db-9" value="规则更新完毕" style="ellipse;whiteSpace=wrap;html=1;fillColor=#cce5ff;strokeColor=#36393d;" parent="snnlCT7HqFTVK2Kif3Db-2" vertex="1">
          <mxGeometry x="65" y="660" width="110" height="70" as="geometry" />
        </mxCell>
        <mxCell id="zdzRJm_jQECb4HYVEGGP-2" style="edgeStyle=orthogonalEdgeStyle;rounded=0;orthogonalLoop=1;jettySize=auto;html=1;entryX=0.5;entryY=0;entryDx=0;entryDy=0;fontSize=12;" parent="snnlCT7HqFTVK2Kif3Db-2" source="snnlCT7HqFTVK2Kif3Db-11" target="zdzRJm_jQECb4HYVEGGP-0" edge="1">
          <mxGeometry relative="1" as="geometry" />
        </mxCell>
        <mxCell id="snnlCT7HqFTVK2Kif3Db-11" value="加载规则集" style="whiteSpace=wrap;html=1;fillColor=#cce5ff;strokeColor=#36393d;" parent="snnlCT7HqFTVK2Kif3Db-2" vertex="1">
          <mxGeometry x="60" y="140" width="120" height="60" as="geometry" />
        </mxCell>
        <mxCell id="zdzRJm_jQECb4HYVEGGP-6" value="" style="edgeStyle=orthogonalEdgeStyle;rounded=0;orthogonalLoop=1;jettySize=auto;html=1;fontSize=12;entryX=0.5;entryY=0;entryDx=0;entryDy=0;" parent="snnlCT7HqFTVK2Kif3Db-2" source="snnlCT7HqFTVK2Kif3Db-13" target="zdzRJm_jQECb4HYVEGGP-7" edge="1">
          <mxGeometry relative="1" as="geometry">
            <mxPoint x="120" y="510" as="targetPoint" />
          </mxGeometry>
        </mxCell>
        <mxCell id="zdzRJm_jQECb4HYVEGGP-10" value="是" style="edgeStyle=orthogonalEdgeStyle;rounded=0;orthogonalLoop=1;jettySize=auto;html=1;fontSize=12;" parent="snnlCT7HqFTVK2Kif3Db-2" source="snnlCT7HqFTVK2Kif3Db-13" target="zdzRJm_jQECb4HYVEGGP-7" edge="1">
          <mxGeometry relative="1" as="geometry" />
        </mxCell>
        <mxCell id="zdzRJm_jQECb4HYVEGGP-11" value="否" style="edgeStyle=orthogonalEdgeStyle;rounded=0;orthogonalLoop=1;jettySize=auto;html=1;entryX=0;entryY=0.5;entryDx=0;entryDy=0;fontSize=12;" parent="snnlCT7HqFTVK2Kif3Db-2" source="snnlCT7HqFTVK2Kif3Db-13" target="zdzRJm_jQECb4HYVEGGP-0" edge="1">
          <mxGeometry relative="1" as="geometry">
            <Array as="points">
              <mxPoint x="20" y="390" />
              <mxPoint x="20" y="285" />
            </Array>
          </mxGeometry>
        </mxCell>
        <mxCell id="snnlCT7HqFTVK2Kif3Db-13" value="是否有更新任务" style="rhombus;whiteSpace=wrap;html=1;fontSize=12;strokeColor=#36393d;fillColor=#cce5ff;" parent="snnlCT7HqFTVK2Kif3Db-2" vertex="1">
          <mxGeometry x="80" y="350" width="80" height="80" as="geometry" />
        </mxCell>
        <mxCell id="zdzRJm_jQECb4HYVEGGP-3" style="edgeStyle=orthogonalEdgeStyle;rounded=0;orthogonalLoop=1;jettySize=auto;html=1;entryX=0.5;entryY=0;entryDx=0;entryDy=0;fontSize=12;" parent="snnlCT7HqFTVK2Kif3Db-2" source="zdzRJm_jQECb4HYVEGGP-0" target="snnlCT7HqFTVK2Kif3Db-13" edge="1">
          <mxGeometry relative="1" as="geometry" />
        </mxCell>
        <mxCell id="zdzRJm_jQECb4HYVEGGP-0" value="获取更新任务" style="whiteSpace=wrap;html=1;fillColor=#cce5ff;strokeColor=#36393d;" parent="snnlCT7HqFTVK2Kif3Db-2" vertex="1">
          <mxGeometry x="60" y="255" width="120" height="60" as="geometry" />
        </mxCell>
        <mxCell id="zdzRJm_jQECb4HYVEGGP-13" value="" style="edgeStyle=orthogonalEdgeStyle;rounded=0;orthogonalLoop=1;jettySize=auto;html=1;fontSize=12;" parent="snnlCT7HqFTVK2Kif3Db-2" source="zdzRJm_jQECb4HYVEGGP-7" target="zdzRJm_jQECb4HYVEGGP-12" edge="1">
          <mxGeometry relative="1" as="geometry" />
        </mxCell>
        <mxCell id="zdzRJm_jQECb4HYVEGGP-7" value="加载规则集" style="whiteSpace=wrap;html=1;fillColor=#cce5ff;strokeColor=#36393d;" parent="snnlCT7HqFTVK2Kif3Db-2" vertex="1">
          <mxGeometry x="60" y="470" width="120" height="60" as="geometry" />
        </mxCell>
        <mxCell id="zdzRJm_jQECb4HYVEGGP-16" style="edgeStyle=orthogonalEdgeStyle;rounded=0;orthogonalLoop=1;jettySize=auto;html=1;entryX=0.5;entryY=0;entryDx=0;entryDy=0;fontSize=12;" parent="snnlCT7HqFTVK2Kif3Db-2" source="zdzRJm_jQECb4HYVEGGP-12" target="snnlCT7HqFTVK2Kif3Db-9" edge="1">
          <mxGeometry relative="1" as="geometry" />
        </mxCell>
        <mxCell id="zdzRJm_jQECb4HYVEGGP-12" value="任务信息存入" style="whiteSpace=wrap;html=1;fillColor=#cce5ff;strokeColor=#36393d;" parent="snnlCT7HqFTVK2Kif3Db-2" vertex="1">
          <mxGeometry x="60" y="560" width="120" height="60" as="geometry" />
        </mxCell>
        <mxCell id="snnlCT7HqFTVK2Kif3Db-15" value="规则更新机制优化" style="rounded=0;whiteSpace=wrap;html=1;fillColor=#0050ef;strokeColor=#001DBC;fontColor=#ffffff;fontSize=16;" parent="eJphlYySZREIFO1Mv2iO-1" vertex="1">
          <mxGeometry x="60" y="70" width="680" height="30" as="geometry" />
        </mxCell>
        <mxCell id="snnlCT7HqFTVK2Kif3Db-16" value="队列" style="swimlane;fillColor=#b1ddf0;strokeColor=#10739e;startSize=23;" parent="eJphlYySZREIFO1Mv2iO-1" vertex="1">
          <mxGeometry x="550" y="100" width="190" height="740" as="geometry" />
        </mxCell>
        <mxCell id="zdzRJm_jQECb4HYVEGGP-18" value="&lt;span style=&quot;white-space: normal&quot;&gt;更新任务队列&lt;/span&gt;" style="html=1;shape=mxgraph.flowchart.sequential_data;whiteSpace=wrap;fontSize=12;strokeColor=#36393d;fillColor=#cce5ff;" parent="snnlCT7HqFTVK2Kif3Db-16" vertex="1">
          <mxGeometry x="45" y="235" width="100" height="100" as="geometry" />
        </mxCell>
        <mxCell id="zdzRJm_jQECb4HYVEGGP-19" value="完成&lt;span style=&quot;white-space: normal&quot;&gt;任务队列&lt;/span&gt;" style="html=1;shape=mxgraph.flowchart.sequential_data;whiteSpace=wrap;fontSize=12;strokeColor=#36393d;fillColor=#cce5ff;" parent="snnlCT7HqFTVK2Kif3Db-16" vertex="1">
          <mxGeometry x="40" y="540" width="100" height="100" as="geometry" />
        </mxCell>
        <mxCell id="9gxssYr24u0h9m5-xp3r-0" style="edgeStyle=orthogonalEdgeStyle;rounded=0;orthogonalLoop=1;jettySize=auto;html=1;entryX=1;entryY=0.5;entryDx=0;entryDy=0;entryPerimeter=0;fontSize=12;" parent="eJphlYySZREIFO1Mv2iO-1" source="snnlCT7HqFTVK2Kif3Db-11" target="snnlCT7HqFTVK2Kif3Db-1" edge="1">
          <mxGeometry relative="1" as="geometry" />
        </mxCell>
        <mxCell id="zdzRJm_jQECb4HYVEGGP-1" style="edgeStyle=orthogonalEdgeStyle;rounded=0;orthogonalLoop=1;jettySize=auto;html=1;fontSize=12;entryX=0;entryY=0.5;entryDx=0;entryDy=0;entryPerimeter=0;" parent="eJphlYySZREIFO1Mv2iO-1" source="zdzRJm_jQECb4HYVEGGP-0" target="zdzRJm_jQECb4HYVEGGP-18" edge="1">
          <mxGeometry relative="1" as="geometry">
            <mxPoint x="608" y="385" as="targetPoint" />
          </mxGeometry>
        </mxCell>
        <mxCell id="zdzRJm_jQECb4HYVEGGP-8" style="edgeStyle=orthogonalEdgeStyle;rounded=0;orthogonalLoop=1;jettySize=auto;html=1;entryX=0.5;entryY=1;entryDx=0;entryDy=0;entryPerimeter=0;fontSize=12;" parent="eJphlYySZREIFO1Mv2iO-1" source="zdzRJm_jQECb4HYVEGGP-7" target="snnlCT7HqFTVK2Kif3Db-1" edge="1">
          <mxGeometry relative="1" as="geometry" />
        </mxCell>
        <mxCell id="zdzRJm_jQECb4HYVEGGP-20" style="edgeStyle=orthogonalEdgeStyle;rounded=0;orthogonalLoop=1;jettySize=auto;html=1;entryX=0;entryY=0.5;entryDx=0;entryDy=0;entryPerimeter=0;fontSize=12;" parent="eJphlYySZREIFO1Mv2iO-1" source="zdzRJm_jQECb4HYVEGGP-12" target="zdzRJm_jQECb4HYVEGGP-19" edge="1">
          <mxGeometry relative="1" as="geometry" />
        </mxCell>
      </root>
    </mxGraphModel>
  </diagram>
</mxfile>
